# xmcd
# 
# Track frame offsets:
#     150
#     14230
#     29415
#     42205
#     53570
#     66120
#     77578
#     87188
#     101563
#     113428
#     123170
#     134215
#     145453
#     154818
#     164418
#     175173
#     186271
#     197643
#     207453
#     218463
#     230826
#     242518
#     252846
# 
# Disc length: 3543
# 
# Revision: 1
# Processed by: cddbd v1.5.2PL0 Copyright (c) Steve Scherf et al.
# Submitted via: fre:ac v1.0.17
# 
DISCID=460dd517
DTITLE=B. B. KING - THE COMPLETE RPM - KENT RECORDING BOX
DYEAR=2015
DGENRE=Blues
TTITLE0=Woke Up This Morning - take 2
TTITLE1=B.B. Boogie - take 2
TTITLE2=Please Love Me - take 2
TTITLE3=Hard Working Woman - take 2
TTITLE4=Shut Your Mouth - alt. take
TTITLE5=Whole Lotta Meat - take 14
TTITLE6=You've Got My Hands Tied
TTITLE7=Baby, Look At You - take 2
TTITLE8=Ruby Lee - short version
TTITLE9=In The Middle Of An Island - take 7
TTITLE10=Days Of Old - alt. take
TTITLE11=Tickle Britches
TTITLE12=Shake Yours - take 7
TTITLE13=Three O'Clock Stomp (aka Poontwangie)
TTITLE14=I've Got Papers On You, Baby
TTITLE15=Mashed Potato Twist
TTITLE16=Whole Lot Of Lovin' - take 1
TTITLE17=My Baby's An Angel
TTITLE18=My Baby's Dynamite
TTITLE19=Don't Let It Shock You
TTITLE20=Mercy, Mercy Baby - take 3
TTITLE21=Your Good Lovin' Man
TTITLE22=Rock Me Baby - alt. version
EXTD=
EXTT0=
EXTT1=
EXTT2=
EXTT3=
EXTT4=
EXTT5=
EXTT6=
EXTT7=
EXTT8=
EXTT9=
EXTT10=
EXTT11=
EXTT12=
EXTT13=
EXTT14=
EXTT15=
EXTT16=
EXTT17=
EXTT18=
EXTT19=
EXTT20=
EXTT21=
EXTT22=
PLAYORDER=
